<svg width="512" height="512" viewBox="0 0 512 512" fill="none" xmlns="http://www.w3.org/2000/svg">
<g clip-path="url(#clip0_9_4)">
<path d="M453.567 103.44C433.305 83.8109 408.209 74 382.473 74C356.738 74 331.03 83.8109 311.408 103.44L280.582 134.266C291.324 139.962 301.533 146.764 310.377 155.609C312.614 157.845 314.57 160.242 316.592 162.603L343.579 135.616C353.965 125.223 367.188 119.5 382.473 119.5C397.169 119.5 410.982 125.221 421.369 135.61C431.756 145.997 437.479 159.81 437.479 174.505C437.479 189.2 431.756 203.014 421.369 213.401L326.601 308.169C316.285 317.923 302.422 324.25 287.777 324.25C273.131 324.25 259.268 318.528 248.881 308.14C238.438 297.732 232.11 283.94 232.11 269.223C232.11 254.507 237.831 240.715 248.22 230.328L251.377 227.847C249.884 225.074 248.32 222.23 246.045 219.955C239.93 213.841 231.897 210.5 223.223 210.5C214.742 210.5 206.801 213.816 200.751 219.721C178.918 258.083 183.951 307.593 216.669 340.296C236.305 359.939 262.041 369.75 287.777 369.75C313.498 369.75 339.22 359.939 358.842 340.31L453.567 245.549C473.793 225.323 483.597 198.62 482.979 172.109C482.36 146.587 472.62 122.457 453.567 103.44ZM194.359 349.417L167.415 376.362C157.035 386.173 143.172 392.5 128.527 392.5C113.831 392.5 100.018 386.779 89.6312 376.39C79.2444 366.003 73.5213 352.19 73.5213 337.495C73.5213 322.8 79.2437 308.986 89.6312 298.599L184.399 203.831C194.715 193.437 207.938 187.75 223.223 187.75C238.509 187.75 251.732 193.472 262.119 203.86C272.513 214.247 278.229 228.06 278.229 242.755C278.229 257.45 272.508 271.264 262.119 281.651L259.623 284.153C261.112 286.954 262.623 289.766 264.931 292.08C271.07 298.159 279.174 301.5 287.777 301.5C296.258 301.5 304.199 298.184 310.249 292.279C332.082 253.917 327.049 204.407 294.331 171.704C274.055 152.061 248.959 142.25 223.223 142.25C197.488 142.25 171.823 152.061 152.201 171.683L57.4399 266.451C37.818 286.073 28 311.794 28 337.516C27.9999 363.238 37.8109 388.96 57.4399 408.589C77.0618 428.189 102.791 438 128.527 438C154.248 438 179.97 428.189 199.592 408.56L230.418 377.734C219.676 372.038 209.467 365.236 200.623 356.391C198.341 354.18 196.421 351.763 194.359 349.417Z" fill="#000000"/>
</g>
<defs>
<clipPath id="clip0_9_4">
<rect width="455" height="364" fill="white" transform="translate(28 74)"/>
</clipPath>
</defs>
</svg>
